<!-- icon666.com - MILLIONS OF FREE VECTOR ICONS --><svg id="Capa_1" enable-background="new 0 0 512 512" viewBox="0 0 512 512" xmlns="http://www.w3.org/2000/svg"><g><path d="m457 0h-402c-30.327 0-55 24.673-55 55v402c0 30.327 24.673 55 55 55h402c30.327 0 55-24.673 55-55v-402c0-30.327-24.673-55-55-55zm-427 55c0-13.785 11.215-25 25-25h5v25c0 8.284 6.716 15 15 15s15-6.716 15-15v-25h30v25c0 8.284 6.716 15 15 15s15-6.716 15-15v-25h30v25c0 8.284 6.716 15 15 15s15-6.716 15-15v-25h52.845l-21.715 54.285c-3.818 9.547-12.929 15.715-23.212 15.715h-187.918zm452 402c0 13.785-11.215 25-25 25h-402c-13.785 0-25-11.215-25-25v-327h187.918c22.621 0 42.666-13.571 51.066-34.574l26.171-65.426h161.845c13.785 0 25 11.215 25 25z" style="fill: rgb(138, 138, 138);"></path><path d="m404.398 217.73c-7.424-18.668-25.203-30.73-45.293-30.73-17.022 0-33.039 9.068-41.798 23.666l-.8 1.334h-121.014l-.801-1.334c-8.758-14.598-24.775-23.666-41.798-23.666-20.09 0-37.868 12.062-45.293 30.73l-38.277 96.237c-5.523 13.887-8.324 28.507-8.324 43.452 0 32.853 26.728 59.581 59.581 59.581 13.289 0 26.362-4.521 36.81-12.731l53.797-42.269h89.625l53.796 42.268c10.448 8.211 23.521 12.732 36.81 12.732 32.853 0 59.581-26.728 59.581-59.581 0-14.946-2.801-29.566-8.324-43.452zm-12.979 169.27c-6.598 0-13.088-2.245-18.275-6.321l-57.876-45.474c-2.644-2.076-5.907-3.205-9.268-3.205h-100c-3.361 0-6.625 1.129-9.267 3.205l-57.876 45.474c-5.188 4.076-11.678 6.321-18.275 6.321-16.312 0-29.582-13.27-29.582-29.581 0-11.132 2.086-22.021 6.2-32.365l38.277-96.237c2.855-7.178 9.692-11.817 17.417-11.817 6.546 0 12.705 3.487 16.073 9.1l5.17 8.618c2.712 4.517 7.594 7.282 12.863 7.282h138c5.27 0 10.151-2.765 12.862-7.283l5.17-8.616c3.368-5.613 9.527-9.101 16.073-9.101 7.726 0 14.562 4.639 17.417 11.817l38.278 96.238c4.113 10.343 6.199 21.231 6.199 32.364.001 16.311-13.269 29.581-29.58 29.581z" style="fill: rgb(138, 138, 138);"></path><circle cx="346" cy="287" r="15" style="fill: rgb(138, 138, 138);"></circle><circle style="fill: rgb(138, 138, 138);" cx="286" cy="287" r="15"></circle><path  style="fill: rgb(138, 138, 138);" d="m216 272h-50c-8.284 0-15 6.716-15 15s6.716 15 15 15h50c8.284 0 15-6.716 15-15s-6.716-15-15-15z"></path><path style="fill: rgb(138, 138, 138);" d="m315 130h120c8.284 0 15-6.716 15-15s-6.716-15-15-15h-120c-8.284 0-15 6.716-15 15s6.716 15 15 15z"></path></g></svg>