<!-- icon666.com - MILLIONS OF FREE VECTOR ICONS --><svg version="1.1" id="Capa_1" xmlns="http://www.w3.org/2000/svg" xmlns:xlink="http://www.w3.org/1999/xlink" x="0px" y="0px" viewBox="0 0 430.897 430.897" style="enable-background:new 0 0 430.897 430.897;" xml:space="preserve"><g><g><path d="M106.667,87.094h-64C19.102,87.094,0,106.196,0,129.76v256c0,23.564,19.102,42.667,42.667,42.667h64 c23.564,0,42.667-19.103,42.667-42.667v-256C149.333,106.196,130.231,87.094,106.667,87.094z M106.667,385.76h-64v-256h64V385.76z " fill="#000000" style="fill: rgb(138, 138, 138);"></path></g></g><g><g><path d="M430.66,375.317L403.9,120.72c-2.463-23.435-23.458-40.436-46.893-37.973l-63.649,6.69 c-23.435,2.463-40.436,23.458-37.973,46.893l26.76,254.597c2.463,23.435,23.458,40.436,46.893,37.973l63.649-6.69 C416.122,419.746,433.123,398.752,430.66,375.317z M324.578,386.467l-26.76-254.597l63.649-6.69l26.76,254.597L324.578,386.467z" fill="#000000" style="fill: rgb(138, 138, 138);"></path></g></g><g><g><path d="M213.333,1.76h-64c-23.564,0-42.667,19.102-42.667,42.667V385.76c0,23.564,19.103,42.667,42.667,42.667h64 c23.564,0,42.667-19.103,42.667-42.667V44.427C256,20.863,236.897,1.76,213.333,1.76z M213.333,385.76h-64V44.427h64V385.76z" fill="#000000" style="fill: rgb(138, 138, 138);"></path></g></g></svg>