<!-- icon666.com - MILLIONS OF FREE VECTOR ICONS --><svg id="Capa_1" enable-background="new 0 0 480 480" viewBox="0 0 480 480" xmlns="http://www.w3.org/2000/svg"><g><path id="Chat_1_" d="m32 464c-6.468 0-12.296-3.892-14.772-9.876-2.484-5.968-1.116-12.844 3.452-17.42.328-.344 30.116-30.344 52.304-63.468-46.564-39.128-72.984-92.768-72.984-149.236 0-114.688 107.664-208 240-208s240 93.312 240 208-107.664 208-240 208c-19.048 0-38.312-2.08-57.4-6.172-54.772 37.688-146.56 38.172-150.592 38.172-.008 0-.008 0-.008 0zm208-416c-114.696 0-208 78.952-208 176 0 50.764 26.132 99.14 71.712 132.72 6.616 4.876 8.46 13.968 4.264 21.048-11.084 18.672-25.164 36.936-37.36 51.42 30.584-3.752 72.384-12.564 98.516-33.14 3.852-3.048 8.892-4.204 13.664-2.984 19.008 4.608 38.252 6.936 57.204 6.936 114.696 0 208-78.952 208-176s-93.304-176-208-176zm0 224c-26.468 0-48-21.532-48-48s21.532-48 48-48 48 21.532 48 48-21.532 48-48 48zm0-64c-8.82 0-16 7.172-16 16s7.18 16 16 16 16-7.172 16-16-7.18-16-16-16zm-128 64c-26.468 0-48-21.532-48-48s21.532-48 48-48 48 21.532 48 48-21.532 48-48 48zm0-64c-8.82 0-16 7.172-16 16s7.18 16 16 16 16-7.172 16-16-7.18-16-16-16zm256 64c-26.468 0-48-21.532-48-48s21.532-48 48-48 48 21.532 48 48-21.532 48-48 48zm0-64c-8.82 0-16 7.172-16 16s7.18 16 16 16 16-7.172 16-16-7.18-16-16-16z" fill="#000000" style="fill: rgb(156, 156, 156);"></path></g></svg>